{
  "accessors": [
    {
      "bufferView": 2,
      "componentType": 5126,
      "count": 7526,
      "max": [
        0.042899999767541885,
        -0.21130000054836273,
        0.11140000075101852
      ],
      "min": [
        -0.039799999445676804,
        -0.37369999289512634,
        -0.0017000000225380063
      ],
      "type": "VEC3"
    },
    {
      "bufferView": 2,
      "byteOffset": 90312,
      "componentType": 5126,
      "count": 7526,
      "max": [
        1.0,
        1.0,
        1.0
      ],
      "min": [
        -1.0,
        -1.0,
        -1.0
      ],
      "type": "VEC3"
    },
    {
      "bufferView": 3,
      "componentType": 5126,
      "count": 7526,
      "max": [
        1.0,
        1.0,
        1.0,
        1.0
      ],
      "min": [
        -1.0,
        -1.0,
        -1.0,
        -1.0
      ],
      "type": "VEC4"
    },
    {
      "bufferView": 1,
      "componentType": 5126,
      "count": 7526,
      "max": [
        0.9901000261306763,
        0.9983999729156494
      ],
      "min": [
        0.030899999663233757,
        0.016100000590085983
      ],
      "type": "VEC2"
    },
    {
      "bufferView": 0,
      "componentType": 5125,
      "count": 29178,
      "type": "SCALAR"
    },
    {
      "bufferView": 2,
      "byteOffset": 180624,
      "componentType": 5126,
      "count": 641,
      "max": [
        0.032499998807907104,
        -0.20839999616146088,
        0.1151999980211258
      ],
      "min": [
        -0.03009999915957451,
        -0.3456000089645386,
        0.009200000204145908
      ],
      "type": "VEC3"
    },
    {
      "bufferView": 2,
      "byteOffset": 188316,
      "componentType": 5126,
      "count": 641,
      "max": [
        1.0,
        1.0,
        1.0
      ],
      "min": [
        -1.0,
        -1.0,
        -1.0
      ],
      "type": "VEC3"
    },
    {
      "bufferView": 3,
      "byteOffset": 120416,
      "componentType": 5126,
      "count": 641,
      "max": [
        0.9999315142631531,
        1.0,
        1.0,
        1.0
      ],
      "min": [
        -0.9999725818634033,
        -1.0,
        -1.0,
        -1.0
      ],
      "type": "VEC4"
    },
    {
      "bufferView": 1,
      "byteOffset": 60208,
      "componentType": 5126,
      "count": 641,
      "max": [
        0.9897000193595886,
        0.9983999729156494
      ],
      "min": [
        0.005400000140070915,
        0.08760000020265579
      ],
      "type": "VEC2"
    },
    {
      "bufferView": 0,
      "byteOffset": 116712,
      "componentType": 5125,
      "count": 1638,
      "type": "SCALAR"
    },
    {
      "bufferView": 2,
      "byteOffset": 196008,
      "componentType": 5126,
      "count": 3151,
      "max": [
        0.03750000149011612,
        -0.13279999792575836,
        0.0575999990105629
      ],
      "min": [
        -0.035100001841783524,
        -0.21359999477863312,
        -0.002099999925121665
      ],
      "type": "VEC3"
    },
    {
      "bufferView": 2,
      "byteOffset": 233820,
      "componentType": 5126,
      "count": 3151,
      "max": [
        1.0,
        1.0,
        1.0
      ],
      "min": [
        -1.0,
        -1.0,
        -1.0
      ],
      "type": "VEC3"
    },
    {
      "bufferView": 3,
      "byteOffset": 130672,
      "componentType": 5126,
      "count": 3151,
      "max": [
        1.0,
        1.0,
        1.0,
        1.0
      ],
      "min": [
        -1.0,
        -1.0,
        -1.0,
        -1.0
      ],
      "type": "VEC4"
    },
    {
      "bufferView": 1,
      "byteOffset": 65336,
      "componentType": 5126,
      "count": 3151,
      "max": [
        0.9944000244140625,
        0.9739000201225281
      ],
      "min": [
        0.011099999770522118,
        0.002899999963119626
      ],
      "type": "VEC2"
    },
    {
      "bufferView": 0,
      "byteOffset": 123264,
      "componentType": 5125,
      "count": 12234,
      "type": "SCALAR"
    }
  ],
  "asset": {
    "extras": {
      "author": "Mishas3D (https://sketchfab.com/Mishas3D)",
      "license": "CC-BY-4.0 (http://creativecommons.org/licenses/by/4.0/)",
      "source": "https://sketchfab.com/3d-models/toy-train-textured-33fe30f69f7b4fa0acf13152ebea8547",
      "title": "Toy Train Textured"
    },
    "generator": "Sketchfab-12.67.0",
    "version": "2.0"
  },
  "bufferViews": [
    {
      "buffer": 0,
      "byteLength": 172200,
      "name": "floatBufferViews",
      "target": 34963
    },
    {
      "buffer": 0,
      "byteLength": 90544,
      "byteOffset": 172200,
      "byteStride": 8,
      "name": "floatBufferViews",
      "target": 34962
    },
    {
      "buffer": 0,
      "byteLength": 271632,
      "byteOffset": 262744,
      "byteStride": 12,
      "name": "floatBufferViews",
      "target": 34962
    },
    {
      "buffer": 0,
      "byteLength": 181088,
      "byteOffset": 534376,
      "byteStride": 16,
      "name": "floatBufferViews",
      "target": 34962
    }
  ],
  "buffers": [
    {
      "byteLength": 715464,
      "uri": "scene.bin"
    }
  ],
  "images": [
    {
      "uri": "textures/Material__81_baseColor.png"
    },
    {
      "uri": "textures/Material__81_metallicRoughness.png"
    },
    {
      "uri": "textures/Material__81_normal.png"
    },
    {
      "uri": "textures/Material__82_baseColor.png"
    },
    {
      "uri": "textures/Material__82_metallicRoughness.png"
    },
    {
      "uri": "textures/Material__82_normal.png"
    }
  ],
  "materials": [
    {
      "doubleSided": true,
      "name": "Material__81",
      "normalTexture": {
        "index": 2
      },
      "pbrMetallicRoughness": {
        "baseColorTexture": {
          "index": 0
        },
        "metallicRoughnessTexture": {
          "index": 1
        }
      }
    },
    {
      "doubleSided": true,
      "name": "Material__82",
      "normalTexture": {
        "index": 5
      },
      "pbrMetallicRoughness": {
        "baseColorTexture": {
          "index": 3
        },
        "metallicRoughnessTexture": {
          "index": 4
        }
      }
    }
  ],
  "meshes": [
    {
      "name": "Object_0",
      "primitives": [
        {
          "attributes": {
            "NORMAL": 1,
            "POSITION": 0,
            "TANGENT": 2,
            "TEXCOORD_0": 3
          },
          "indices": 4,
          "material": 0,
          "mode": 4
        }
      ]
    },
    {
      "name": "Object_1",
      "primitives": [
        {
          "attributes": {
            "NORMAL": 6,
            "POSITION": 5,
            "TANGENT": 7,
            "TEXCOORD_0": 8
          },
          "indices": 9,
          "material": 0,
          "mode": 4
        }
      ]
    },
    {
      "name": "Object_2",
      "primitives": [
        {
          "attributes": {
            "NORMAL": 11,
            "POSITION": 10,
            "TANGENT": 12,
            "TEXCOORD_0": 13
          },
          "indices": 14,
          "material": 1,
          "mode": 4
        }
      ]
    }
  ],
  "nodes": [
    {
      "children": [
        1
      ],
      "matrix": [
        1.0,
        0.0,
        0.0,
        0.0,
        0.0,
        2.220446049250313e-16,
        -1.0,
        0.0,
        0.0,
        1.0,
        2.220446049250313e-16,
        0.0,
        0.0,
        0.0,
        0.0,
        1.0
      ],
      "name": "Sketchfab_model"
    },
    {
      "children": [
        2,
        3,
        4
      ],
      "name": "ToyTrainTexturedAR02.obj.cleaner.materialmerger.gles"
    },
    {
      "mesh": 0,
      "name": "Object_2"
    },
    {
      "mesh": 1,
      "name": "Object_3"
    },
    {
      "mesh": 2,
      "name": "Object_4"
    }
  ],
  "samplers": [
    {
      "magFilter": 9729,
      "minFilter": 9987,
      "wrapS": 10497,
      "wrapT": 10497
    }
  ],
  "scene": 0,
  "scenes": [
    {
      "name": "Sketchfab_Scene",
      "nodes": [
        0
      ]
    }
  ],
  "textures": [
    {
      "sampler": 0,
      "source": 0
    },
    {
      "sampler": 0,
      "source": 1
    },
    {
      "sampler": 0,
      "source": 2
    },
    {
      "sampler": 0,
      "source": 3
    },
    {
      "sampler": 0,
      "source": 4
    },
    {
      "sampler": 0,
      "source": 5
    }
  ]
}
